<svg xmlns="http://www.w3.org/2000/svg" preserveAspectRatio="xMidYMid" width="179.656" height="33.563" viewBox="0 0 179.656 33.563"><path d="M167.902 6.66c-3.007 0-4.708 1.141-4.708 2.802 0 1.647 2.181 2.488 4.929 3.313 4.854 1.497 11.546 3.031 11.546 9.388 0 6.55-5.299 11.372-13.684 11.372-5.364 0-10.349-2.248-12.572-3.775l3.618-6.416c2.019 1.22 5.944 3.098 9.565 3.098 2.049 0 4.638-.396 4.638-2.671 0-2.137-2.893-2.791-6.687-3.875-4.581-1.314-10.302-3.137-10.302-9.299 0-6.639 6.289-10.546 13.966-10.546 5.069 0 8.996 1.988 11 3.907l-4.405 5.017c-2.18-1.302-4.407-2.315-6.904-2.315zm-32.783 26.875c-10.393 0-16.28-7.664-16.28-16.851 0-9.101 5.887-16.633 16.28-16.633 9.734 0 15.499 7.532 15.499 16.633 0 9.187-5.765 16.851-15.499 16.851zm0-26.562c-4.281 0-7.328 3.059-7.328 9.711 0 6.753 3.047 9.8 7.328 9.8 3.671 0 6.482-3.047 6.482-9.8 0-6.652-2.811-9.711-6.482-9.711zM117.485 32.74h-8.556l-3.765-8.813c-.77-1.778-1.306-3.051-2.938-3.051h-3.33V32.74H90.73V2.127c0-.659.8-1.211 1.319-1.211h11.404c6.118 0 11.749 1.24 11.749 9.144 0 3.538-2.345 7.132-6.016 7.864 1.829.621 3.671 3.04 4.671 5.584l3.628 9.232zM102.917 7.251h-4.021v8.166h4.021c2.384 0 4.261-1.48 4.261-4.498 0-2.138-1.877-3.668-4.261-3.668zM73.949 33.56c-11.838 0-17.735-5.988-17.735-16.876 0-9.711 5.949-16.672 16.352-16.672 4.58 0 8.598 1.456 11.185 3.202l-3.195 5.461c-2.234-1.002-5.24-1.702-7.369-1.702-5.98 0-8.818 3.969-8.818 9.711 0 6.138 3.325 9.927 9.296 9.927 1.097 0 2.162-.043 3.445-.21v-5.467h-3.634v-6.437h9.701c.814 0 1.179.726 1.179 1.507v16.162c-2.823.648-7.035 1.394-10.407 1.394zM42.621.916h7.067c.612 0 1.111.552 1.111 1.211V32.74h-8.178V.916zM28.107 14.499l-7.811 18.156h-4.363L8.145 14.499V32.74H-.01V.916h10.822l7.78 18.149L26.321.916h9.961V32.74h-8.175V14.499z" fill="#f60" fill-rule="evenodd"/></svg>